<?xml version="1.0" standalone="no"?>
<!DOCTYPE svg PUBLIC "-//W3C//DTD SVG 20010904//EN"
 "http://www.w3.org/TR/2001/REC-SVG-20010904/DTD/svg10.dtd">
<svg version="1.0" xmlns="http://www.w3.org/2000/svg"
 width="1080.000000pt" height="1080.000000pt" viewBox="0 0 1080.000000 1080.000000"
 preserveAspectRatio="xMidYMid meet">
<metadata>
Created by potrace 1.16, written by Peter Selinger 2001-2019
</metadata>
<g transform="translate(0.000000,1080.000000) scale(0.100000,-0.100000)"
fill="#000000" stroke="none">
<path d="M8458 6784 l-216 -596 144 -463 c79 -255 144 -468 144 -474 0 -7
-103 -12 -317 -13 l-317 -3 -132 -362 -131 -363 566 -2 565 -3 115 -367 115
-368 508 0 507 0 -28 78 c-16 42 -313 844 -659 1782 -347 938 -634 1715 -639
1728 -7 18 -51 -95 -225 -574z"/>
<path d="M970 5545 l0 -1775 425 0 425 0 0 448 c0 367 -6 579 -35 1163 -19
393 -37 759 -40 814 -4 55 -3 97 1 93 4 -5 199 -572 434 -1260 l426 -1253 281
-3 281 -2 26 77 c277 825 832 2443 834 2431 2 -9 -15 -391 -38 -850 -22 -458
-39 -882 -38 -942 l3 -109 423 1164 422 1164 0 308 0 307 -560 0 -559 0 -56
-172 c-30 -95 -207 -648 -392 -1228 -185 -580 -338 -1057 -340 -1059 -2 -2 -6
-2 -9 1 -3 3 -182 556 -398 1229 l-392 1224 -562 3 -562 2 0 -1775z"/>
<path d="M4592 4343 c-111 -307 -202 -561 -202 -565 0 -5 92 -8 205 -8 l205 0
0 565 c0 311 -1 565 -3 565 -1 0 -94 -251 -205 -557z"/>
</g>
</svg>
