<?xml version="1.0" standalone="no"?>
<!DOCTYPE svg PUBLIC "-//W3C//DTD SVG 20010904//EN"
 "http://www.w3.org/TR/2001/REC-SVG-20010904/DTD/svg10.dtd">
<svg version="1.0" xmlns="http://www.w3.org/2000/svg"
 width="1080.000000pt" height="1080.000000pt" viewBox="0 0 1080.000000 1080.000000"
 preserveAspectRatio="xMidYMid meet">

<g transform="translate(0.000000,1080.000000) scale(0.100000,-0.100000)"
fill="#FF0000" stroke="none">
<path d="M5235 10580 c-1172 -62 -2235 -498 -3100 -1272 -317 -284 -591 -601
-830 -963 -145 -219 -217 -346 -331 -580 -335 -690 -496 -1396 -496 -2175 0
-779 161 -1485 496 -2175 114 -234 186 -361 331 -580 430 -652 1007 -1192
1690 -1585 144 -83 456 -234 618 -299 772 -311 1652 -422 2497 -315 399 50
849 167 1217 315 160 64 473 215 618 298 152 87 457 292 590 396 509 397 955
912 1276 1470 251 439 452 971 553 1470 115 566 131 1185 45 1755 -156 1029
-622 1968 -1359 2734 -297 308 -717 634 -1105 857 -144 82 -457 234 -618 298
-640 258 -1411 387 -2092 351z m711 -3110 c173 -59 275 -197 275 -371 0 -130
-31 -210 -113 -286 -104 -95 -204 -128 -373 -120 -114 4 -198 27 -246 66 l-23
18 128 354 c71 195 131 358 134 363 8 14 154 -2 218 -24z m3399 -1885 c362
-979 660 -1788 663 -1798 4 -16 -23 -17 -509 -15 l-513 3 -115 368 -115 367
-563 0 -564 0 7 23 c15 50 246 681 255 698 9 18 28 19 323 19 l313 0 -143 461
c-79 254 -144 468 -144 477 0 10 356 1001 428 1191 4 11 6 11 12 0 5 -8 304
-815 665 -1794z m-7241 1713 c7 -18 186 -572 397 -1230 211 -658 385 -1195
388 -1193 2 3 180 555 395 1227 l391 1223 568 3 567 2 0 -308 0 -308 -420
-1157 c-231 -636 -426 -1171 -434 -1189 -14 -31 -14 -27 -15 77 0 61 19 495
43 965 23 470 42 856 41 858 -1 1 -193 -560 -426 -1248 l-424 -1250 -286 0
-287 0 -46 133 c-25 72 -217 634 -426 1247 -239 702 -379 1102 -380 1080 0
-19 18 -402 40 -850 32 -659 40 -891 40 -1212 l0 -398 -430 0 -430 0 0 1780 0
1780 561 0 560 0 13 -32z m4084 -2205 l2 -1323 -420 0 -420 0 0 1325 0 1325
418 -2 417 -3 3 -1322z m-1378 -733 l0 -590 -216 0 c-169 0 -215 3 -212 13 3
6 99 272 214 589 115 318 210 578 212 578 1 0 2 -265 2 -590z"/>
</g>
</svg>
